# xmcd
#
# Track frame offsets:
#	150
#	15926
#	26761
#	36356
#	47841
#	60837
#	72983
#	83209
#	95985
#	107241
#	118787
#	131593
#
# Disc length: 1876 seconds
#
# Revision: 0
# Processed by: cddbd v1.5.1PL2 Copyright (c) Steve Scherf et al.
# Submitted via: EasyCDDAExtractor 8.1.4.1
#
DISCID=a207520c
DTITLE=Teddy, Chano, Jan and John
DYEAR=1973
DGENRE=Country
TTITLE0=En Speciel Model
TTITLE1=Et Dejligt Par
TTITLE2=Ha' Det Godt Gamle Hansen
TTITLE3=Har Du Knoklet Som En Djævel?
TTITLE4=Hep Hep Hobro
TTITLE5=Hvis Du Gir' En Omgang!
TTITLE6=Hvorfor Ska' Det Altid Vare Så Længe?
TTITLE7=I Morgen Er Jeg På Vej Igen
TTITLE8=Ikke Flere Penge, Fyret Fra Mit Job
TTITLE9=Jeg hører Aldrig Fuglesang
TTITLE10=Jeg Vil Bo På Vesterbro
TTITLE11=Kærlighedens Hus
EXTD=
EXTT0=
EXTT1=
EXTT2=
EXTT3=
EXTT4=
EXTT5=
EXTT6=
EXTT7=
EXTT8=
EXTT9=
EXTT10=
EXTT11=
PLAYORDER=
